<svg xmlns="http://www.w3.org/2000/svg" viewBox="0 0 100 100" width="100%" height="100%">
  <!-- Inner planet circle -->
  <circle cx="50" cy="50" r="28" fill="#060a13" stroke="#00d2ff" stroke-width="3"/>
  
  <!-- Ring Back -->
  <path d="M 22 55 A 35 15 -25 0 1 82 35" fill="none" stroke="#00d2ff" stroke-width="3" stroke-linecap="round"/>
  <path d="M 15 60 A 45 20 -25 0 1 88 28" fill="none" stroke="#00d2ff" stroke-width="3" stroke-linecap="round"/>
  
  <!-- Rocket Body -->
  <path d="M 50 20 C 56 32 55 52 57 54 L 43 54 C 45 52 44 32 50 20 Z" fill="#060a13" stroke="#00d2ff" stroke-width="3" stroke-linejoin="round"/>
  
  <!-- Rocket Base/Engine -->
  <path d="M 45 54 L 55 54 L 53 58 L 47 58 Z" fill="#060a13" stroke="#00d2ff" stroke-width="3" stroke-linejoin="round"/>
  
  <!-- Rocket Fins -->
  <path d="M 44 48 L 38 56 L 43 53 M 56 48 L 62 56 L 57 53" fill="none" stroke="#00d2ff" stroke-width="3" stroke-linecap="round" stroke-linejoin="round"/>
  
  <!-- Ring Front & Rocket Trail -->
  <path d="M 82 35 A 35 15 -25 0 1 22 55" fill="none" stroke="#00d2ff" stroke-width="3" stroke-linecap="round"/>
  <path d="M 88 28 A 45 20 -25 0 1 45 74 C 48 76 50 66 50 58" fill="none" stroke="#00d2ff" stroke-width="3" stroke-linecap="round"/>
  
  <!-- Window -->
  <circle cx="50" cy="40" r="3" fill="none" stroke="#00d2ff" stroke-width="2"/>
</svg>
